<svg  width="600" height="600" xmlns="http://www.w3.org/2000/svg" ><path  d="
 M 309 22 C 326 20, 342, 22, 356, 27
 C 373 32, 387, 38, 399, 48
 C 415 62, 425, 77, 432, 92
 C 438 109, 442, 124, 444, 139
 C 446 160, 447, 180, 443, 197
 C 440 215, 435, 229, 427, 243
 C 416 259, 401, 270, 387, 277
 C 369 284, 351, 287, 335, 288
 C 345 296, 353, 308, 357, 319
 C 367 354, 368, 390, 376, 423
 C 375 436, 379, 446, 373, 455
 C 373 453, 374, 452, 375, 451
 C 378 467, 380, 481, 381, 495
 C 374 503, 368, 507, 360, 508
 C 368 507, 374, 503, 380, 498
 L 381 496 L 382 495
 L 383 496 C 390 513, 395, 532, 398, 550
 C 399 560, 398, 567, 394, 572
 C 385 577, 377, 580, 369, 581
 C 359 582, 352, 581, 346, 580
 C 338 578, 332, 577, 328, 573
 C 326 549, 324, 528, 322, 507
 C 326 505, 327, 508, 330, 508
 C 327 507, 324, 506, 321, 505
 C 319 484, 317, 466, 315, 449
 C 309 446, 322, 452, 311, 455
 C 310 495, 305, 528, 302, 573
 C 290 580, 277, 582, 263, 581
 C 253 580, 245, 577, 237, 574
 C 234 570, 232, 568, 232, 566
 C 231 539, 239, 518, 246, 497
 C 253 499, 257, 504, 263, 506
 C 257 504, 250, 500, 248, 494
 C 250 478, 251, 465, 254, 452
 C 256 454, 260, 456, 264, 458
 C 260 456, 255, 453, 256, 447
 C 255 416, 265, 380, 264, 346
 C 269 334, 271, 324, 276, 315
 C 282 304, 290, 296, 298, 289
 C 280 286, 262, 282, 245, 272
 C 232 264, 221, 253, 214, 241
 C 202 223, 197, 205, 194, 186
 C 191 165, 190, 143, 194, 125
 C 197 109, 201, 96, 207, 83
 C 214 72, 222, 63, 231, 55
 C 242 45, 252, 39, 262, 34
 C 278 28, 292, 24, 307, 22" fill="rgb(179,192,196)" />
<path  d="
 M 314 40 C 295 42, 279, 47, 263, 56
 C 252 64, 242, 71, 236, 81
 C 225 95, 218, 109, 214, 124
 C 210 143, 209, 160, 208, 178
 C 210 196, 213, 211, 218, 225
 C 225 240, 234, 253, 247, 263
 C 260 274, 273, 280, 286, 284
 C 301 288, 315, 287, 330, 287
 C 348 285, 363, 280, 378, 272
 C 389 265, 397, 257, 405, 248
 C 416 235, 422, 222, 426, 208
 C 430 190, 431, 174, 430, 157
 C 429 139, 426, 125, 420, 111
 C 416 98, 410, 88, 402, 78
 C 390 65, 379, 58, 367, 51
 C 349 44, 333, 40, 316, 39" fill="rgb(226,194,178)" />
<path  d="
 M 312 69 C 326 67, 339, 72, 351, 76
 C 366 82, 377, 91, 386, 103
 C 394 112, 399, 120, 402, 128
 C 407 142, 410, 154, 411, 167
 C 411 183, 413, 198, 409, 210
 C 407 224, 402, 235, 395, 245
 C 387 254, 380, 261, 371, 265
 C 358 273, 347, 276, 334, 278
 C 317 279, 302, 279, 290, 274
 C 279 271, 270, 267, 262, 261
 C 254 253, 246, 246, 243, 238
 C 234 224, 230, 210, 229, 196
 C 229 179, 228, 163, 231, 150
 C 234 133, 239, 119, 248, 106
 C 256 96, 264, 89, 272, 84
 C 286 76, 297, 71, 310, 69" fill="rgb(214,169,146)" />
<path  d="
 M 339 75 C 335 76, 330, 77, 329, 82
 C 328 89, 328, 92, 329, 98
 C 330 102, 333, 106, 335, 107
 C 342 109, 347, 110, 353, 109
 C 348 116, 340, 118, 332, 120
 C 320 121, 312, 120, 305, 115
 C 301 110, 296, 108, 296, 104
 C 292 93, 297, 82, 297, 75
 C 284 78, 275, 86, 266, 90
 C 257 100, 264, 88, 254, 101
 C 251 105, 237, 127, 234, 145
 C 231 159, 231, 172, 230, 184
 C 231 202, 235, 216, 241, 229
 C 241 232, 241, 217, 249, 214
 C 255 208, 264, 209, 269, 212
 C 276 218, 278, 223, 279, 228
 C 278 236, 274, 239, 270, 242
 C 265 246, 260, 246, 256, 245
 C 250 244, 248, 241, 246, 238
 C 250 247, 258, 254, 266, 260
 C 270 264, 284, 271, 293, 273
 C 309 276, 322, 277, 334, 275
 C 351 273, 364, 268, 375, 260
 C 381 261, 383, 250, 393, 245
 C 398 235, 405, 223, 406, 210
 C 411 192, 409, 175, 407, 159
 C 405 142, 400, 129, 394, 117
 C 388 105, 376, 95, 368, 88
 C 360 85, 351, 77, 341, 75" fill="rgb(229,182,157)" />
<path  d="
 M 302 289 C 295 292, 290, 298, 286, 304
 C 277 314, 273, 324, 270, 334
 C 263 370, 263, 407, 254, 440
 C 264 447, 273, 448, 282, 449
 C 314 443, 346, 456, 375, 443
 C 369 399, 365, 355, 354, 314
 C 349 304, 343, 296, 335, 291
 C 324 287, 313, 289, 304, 288" fill="rgb(72,184,233)" />
<path  d="
 M 318 23 C 287 25, 259, 34, 235, 52
 C 228 60, 221, 65, 217, 72
 C 209 82, 204, 91, 201, 100
 C 193 123, 193, 147, 194, 172
 C 196 193, 200, 211, 208, 227
 C 214 242, 224, 255, 236, 264
 C 249 275, 263, 280, 278, 283
 C 267 279, 257, 274, 247, 267
 C 232 254, 222, 241, 216, 226
 C 211 212, 208, 200, 207, 187
 C 206 164, 207, 143, 212, 125
 C 216 109, 221, 97, 229, 85
 C 238 72, 249, 62, 260, 56
 C 275 47, 288, 42, 302, 39
 C 318 36, 331, 37, 344, 41
 C 357 44, 368, 49, 379, 55
 C 389 62, 396, 69, 403, 77
 C 417 93, 424, 111, 429, 129
 C 433 148, 433, 167, 432, 186
 C 431 200, 427, 211, 423, 222
 C 417 239, 407, 252, 393, 263
 C 380 274, 367, 280, 354, 285
 C 364 283, 374, 281, 383, 276
 C 398 270, 409, 262, 419, 250
 C 430 237, 435, 225, 439, 212
 C 444 190, 445, 168, 443, 147
 C 442 127, 437, 111, 431, 96
 C 425 81, 419, 70, 409, 59
 C 396 47, 385, 39, 372, 33
 C 356 28, 342, 23, 327, 23
 C 323 23, 321, 22, 320, 23" fill="rgb(72,185,234)" />
<path  d="
 M 248 498 C 241 513, 238, 529, 234, 545
 C 233 556, 231, 563, 236, 570
 C 244 575, 251, 577, 258, 579
 C 274 580, 288, 580, 299, 574
 C 302 551, 304, 530, 306, 508
 C 296 510, 286, 512, 275, 511
 C 264 510, 256, 506, 249, 499" fill="rgb(254,254,254)" />
<path  d="
 M 382 497 C 375 505, 366, 510, 357, 511
 C 344 512, 334, 511, 325, 507
 C 327 530, 327, 554, 331, 575
 C 345 580, 357, 580, 370, 579
 C 379 577, 386, 575, 393, 572
 C 397 565, 397, 558, 396, 550
 C 393 531, 389, 514, 382, 499" fill="rgb(254,254,254)" />
<path  d="
 M 345 297 C 356 295, 366, 297, 374, 302
 C 393 321, 413, 339, 429, 355
 C 439 365, 456, 381, 474, 387
 C 477 391, 482, 393, 482, 396
 C 483 402, 482, 404, 481, 407
 C 474 416, 470, 412, 466, 416
 C 456 413, 451, 407, 444, 403
 C 433 392, 423, 383, 412, 374
 C 416 371, 419, 367, 422, 365
 C 419 367, 416, 370, 413, 372
 C 394 357, 377, 342, 360, 326
 C 356 316, 352, 307, 346, 300" fill="rgb(223,197,181)" />
<path  d="
 M 272 297 C 305 290, 270, 316, 272, 327
 C 254 344, 239, 357, 223, 371
 C 217 370, 215, 366, 210, 362
 C 213 366, 217, 370, 220, 372
 C 210 384, 200, 393, 189, 402
 C 182 408, 177, 412, 171, 415
 C 165 416, 162, 413, 164, 409
 C 163 411, 163, 412, 164, 414
 C 159 414, 157, 411, 154, 410
 C 151 404, 151, 398, 152, 394
 C 166 383, 180, 379, 191, 366
 C 212 344, 237, 327, 255, 304
 C 262 300, 266, 298, 271, 297" fill="rgb(224,197,182)" />
<path  d="
 M 318 454 C 320 470, 320, 487, 323, 502
 C 333 507, 343, 509, 354, 508
 C 365 507, 372, 503, 379, 497
 C 378 482, 377, 468, 375, 456
 C 369 458, 365, 460, 360, 460
 C 344 461, 331, 461, 319, 456" fill="rgb(247,194,163)" />
<path  d="
 M 255 453 C 253 466, 251, 480, 250, 494
 C 258 504, 266, 507, 274, 508
 C 287 509, 297, 507, 307, 504
 C 309 487, 310, 472, 312, 457
 C 303 460, 295, 460, 287, 461
 C 275 461, 264, 461, 256, 455" fill="rgb(247,194,163)" />
<path  d="
 M 367 150 C 373 149, 380, 149, 383, 152
 C 389 157, 394, 161, 395, 165
 C 397 176, 397, 184, 394, 191
 C 391 198, 385, 204, 379, 205
 C 370 206, 363, 206, 359, 200
 C 352 195, 353, 191, 351, 186
 C 349 175, 352, 166, 354, 161
 C 358 155, 362, 153, 366, 151" fill="rgb(167,162,160)" />
<path  d="
 M 262 150 C 268 149, 276, 149, 280, 153
 C 287 158, 290, 162, 291, 167
 C 294 178, 293, 188, 289, 194
 C 287 201, 282, 203, 278, 205
 C 272 205, 267, 206, 264, 204
 C 257 201, 251, 197, 249, 192
 C 247 184, 246, 175, 248, 168
 C 251 160, 255, 154, 260, 151" fill="rgb(167,162,159)" />
<path  d="
 M 347 299 C 353 306, 357, 314, 359, 324
 C 377 340, 393, 355, 410, 369
 C 415 369, 418, 366, 420, 363
 C 424 359, 425, 357, 426, 354
 C 408 337, 392, 321, 377, 305
 C 368 299, 359, 298, 349, 299" fill="rgb(247,194,163)" />
<path  d="
 M 272 299 C 267 300, 262, 301, 259, 305
 C 241 322, 225, 337, 209, 352
 C 210 360, 214, 366, 220, 370
 C 237 357, 253, 343, 269, 329
 C 268 316, 300, 293, 273, 299" fill="rgb(247,194,163)" />
<path  d="
 M 371 153 C 364 154, 359, 159, 355, 165
 C 351 171, 352, 178, 352, 184
 C 352 191, 357, 193, 359, 197
 C 364 202, 369, 203, 375, 202
 C 383 201, 388, 196, 393, 192
 C 395 185, 396, 181, 395, 175
 C 393 168, 390, 162, 385, 156
 C 380 153, 376, 153, 373, 152" fill="rgb(173,173,173)" />
<path  d="
 M 268 153 C 263 154, 258, 156, 255, 161
 C 250 169, 246, 173, 248, 182
 C 247 189, 253, 191, 254, 196
 C 261 201, 267, 203, 274, 202
 C 281 202, 284, 196, 287, 193
 C 291 187, 292, 181, 291, 174
 C 291 169, 290, 167, 289, 164
 C 284 158, 277, 153, 270, 152" fill="rgb(172,172,172)" />
<path  d="
 M 428 355 C 427 362, 421, 368, 414, 373
 C 429 387, 442, 401, 458, 410
 C 462 413, 464, 414, 468, 413
 C 469 406, 464, 402, 463, 397
 C 468 401, 471, 405, 472, 411
 C 475 411, 480, 408, 480, 405
 C 481 399, 481, 395, 477, 393
 C 460 383, 444, 373, 430, 357" fill="rgb(254,254,254)" />
<path  d="
 M 205 355 C 192 371, 175, 382, 158, 390
 C 153 395, 152, 401, 153, 404
 C 156 409, 158, 410, 160, 412
 C 163 406, 165, 401, 167, 396
 C 170 401, 165, 406, 165, 411
 C 166 415, 170, 413, 171, 412
 C 186 397, 239, 377, 203, 358" fill="rgb(254,254,254)" />
<path  d="
 M 312 72 C 294 68, 298, 85, 296, 99
 C 298 105, 300, 109, 305, 112
 C 313 118, 322, 119, 331, 118
 C 339 117, 345, 115, 351, 112
 C 346 111, 342, 111, 337, 110
 C 332 107, 328, 103, 327, 99
 C 327 91, 326, 86, 328, 82
 C 332 77, 334, 73, 339, 74
 C 331 71, 322, 70, 313, 71" fill="rgb(0,0,0)" />
<path  d="
 M 377 210 C 380 208, 384, 211, 386, 211
 C 393 215, 396, 219, 397, 223
 C 397 229, 398, 232, 396, 234
 C 393 240, 389, 245, 385, 246
 C 378 247, 375, 247, 371, 245
 C 366 242, 363, 238, 362, 235
 C 360 228, 361, 223, 363, 219
 C 368 214, 371, 211, 375, 210" fill="rgb(222,100,87)" />
<path  d="
 M 379 211 C 372 211, 365, 215, 363, 222
 C 361 228, 362, 231, 364, 236
 C 366 240, 369, 242, 371, 244
 C 377 246, 382, 246, 385, 244
 C 390 242, 393, 239, 394, 236
 C 397 231, 397, 226, 395, 223
 C 393 218, 391, 215, 388, 214
 C 385 211, 382, 212, 380, 211" fill="rgb(220,91,80)" />
<path  d="
 M 256 211 C 251 213, 246, 215, 244, 221
 C 241 229, 244, 236, 245, 238
 C 249 241, 257, 248, 264, 244
 C 270 242, 274, 238, 276, 235
 C 278 229, 278, 226, 276, 223
 C 275 218, 273, 216, 272, 214
 C 266 211, 262, 210, 257, 211" fill="rgb(220,91,80)" />
<path  d="
 M 368 163 C 375 160, 383, 165, 385, 171
 C 385 176, 386, 180, 386, 183
 C 384 188, 381, 191, 378, 193
 C 372 194, 369, 194, 367, 191
 C 362 188, 361, 186, 360, 183
 C 359 174, 361, 168, 366, 164" fill="rgb(44,44,44)" />
<path  d="
 M 265 164 C 268 163, 272, 163, 275, 164
 C 279 169, 283, 171, 282, 176
 C 283 184, 281, 191, 275, 194
 C 266 196, 260, 191, 258, 186
 C 257 180, 257, 178, 258, 174
 C 259 170, 261, 168, 264, 166" fill="rgb(43,43,43)" />
<path  d="
 M 370 165 C 363 168, 360, 174, 362, 182
 C 364 189, 370, 193, 376, 191
 C 383 188, 384, 182, 385, 177
 C 384 171, 381, 170, 380, 168
 C 377 165, 374, 164, 371, 165" fill="rgb(0,0,0)" />
<path  d="
 M 267 166 C 261 169, 259, 174, 258, 180
 C 260 186, 261, 188, 263, 191
 C 267 194, 270, 192, 272, 193
 C 280 189, 282, 183, 281, 177
 C 281 172, 279, 170, 277, 167
 C 273 165, 270, 166, 269, 165" fill="rgb(0,0,0)" />
<path  d="
 M 375 446 C 357 452, 334, 454, 316, 450
 C 330 458, 345, 460, 359, 457
 C 365 457, 369, 456, 372, 454
 C 374 451, 374, 449, 375, 448" fill="rgb(253,253,253)" />
<path  d="
 M 256 447 C 257 449, 257, 452, 259, 454
 C 264 456, 267, 457, 271, 456
 C 287 458, 301, 458, 312, 452
 C 297 455, 276, 452, 259, 447" fill="rgb(253,253,253)" />
<path  d="
 M 249 125 C 263 135, 277, 146, 293, 153
 C 287 156, 281, 152, 276, 150
 C 265 143, 257, 136, 248, 129" fill="rgb(113,89,75)" />
<path  d="
 M 392 122 C 399 128, 381, 136, 378, 140
 C 368 146, 360, 153, 351, 154
 C 364 143, 378, 137, 390, 125" fill="rgb(115,90,76)" />
<path  d="
 M 315 227 C 330 222, 345, 239, 358, 229
 C 356 234, 353, 235, 352, 235
 C 341 235, 335, 229, 325, 231
 C 311 228, 301, 233, 290, 236
 C 271 228, 305, 235, 312, 226" fill="rgb(166,130,109)" />
<path  d="
 M 274 415 C 283 420, 292, 430, 302, 434
 C 291 432, 282, 427, 274, 419" fill="rgb(36,93,118)" />
<path  d="
 M 354 415 C 359 421, 338, 433, 331, 436
 C 337 430, 344, 426, 350, 418" fill="rgb(35,91,115)" />
<path  d="
 M 249 127 C 261 139, 275, 148, 289, 155
 C 277 146, 263, 139, 251, 128" fill="rgb(4,3,3)" />
<path  d="
 M 392 125 C 380 137, 366, 144, 353, 152
 C 368 145, 382, 137, 394, 125" fill="rgb(4,3,3)" /></svg>